HIERARCHY
ROOT Hips
{
  OFFSET 74.0196 97.4445 -31.1285
  CHANNELS 6 Xposition Yposition Zposition Zrotation Xrotation Yrotation
  JOINT RightUpLeg
  {
    OFFSET -8.9458 -8.66707 0.101652
    CHANNELS 3 Zrotation Xrotation Yrotation
    JOINT RightLeg
    {
      OFFSET -2.94875e-013 -44.4227 1.3727
      CHANNELS 3 Zrotation Xrotation Yrotation
      JOINT RightFoot
      {
        OFFSET 0.253549 -42.0924 -1.46059
        CHANNELS 3 Zrotation Xrotation Yrotation
        JOINT RightToes
        {
          OFFSET 0.04 -4.41509 8.4991
          CHANNELS 3 Zrotation Xrotation Yrotation
          End Site
          {
            OFFSET -0.08 -0.137448 9.77979
          }
        }
      }
    }
  }
  JOINT Spine
  {
    OFFSET -5.68434e-014 11.8905 -6.39488e-014
    CHANNELS 3 Zrotation Xrotation Yrotation
    JOINT Spine1
    {
      OFFSET 5.68434e-014 25.6574 0.127663
      CHANNELS 3 Zrotation Xrotation Yrotation
      JOINT HEad
      {
        OFFSET 4.26326e-014 8.73416 0.011341
        CHANNELS 3 Zrotation Xrotation Yrotation
        End Site
        {
          OFFSET -0.29 12.7742 2.51395
        }
      }
      JOINT LeftShoulder1
      {
        OFFSET 8.99 -0.362252 -0.22
        CHANNELS 3 Zrotation Xrotation Yrotation
        JOINT LeftArm
        {
          OFFSET 10.2827 -0.00338 0.322123
          CHANNELS 3 Zrotation Xrotation Yrotation
          JOINT LeftForeArm
          {
            OFFSET 32.7669 0.099144 -1.42434
            CHANNELS 3 Zrotation Xrotation Yrotation
            JOINT LeftHand
            {
              OFFSET 27.5643 0.085362 1.02216
              CHANNELS 3 Zrotation Xrotation Yrotation
              End Site
              {
                OFFSET 16.7443 -0.6 1.50291
              }
            }
          }
        }
      }
      JOINT RightShoulder
      {
        OFFSET -8.99 -0.362252 -0.22
        CHANNELS 3 Zrotation Xrotation Yrotation
        JOINT RightArm
        {
          OFFSET -10.2827 -0.00338 0.322123
          CHANNELS 3 Zrotation Xrotation Yrotation
          JOINT RightForeArm
          {
            OFFSET -32.8971 0.099144 -1.42434
            CHANNELS 3 Zrotation Xrotation Yrotation
            JOINT RightHand
            {
              OFFSET -27.4921 0.085362 1.02216
              CHANNELS 3 Zrotation Xrotation Yrotation
              End Site
              {
                OFFSET -16.6312 -0.6 1.50291
              }
            }
          }
        }
      }
    }
  }
  JOINT LeftUpLeg
  {
    OFFSET 8.9458 -8.66707 0.101652
    CHANNELS 3 Zrotation Xrotation Yrotation
    JOINT LeftLeg
    {
      OFFSET 7.10543e-014 -44.4227 1.3727
      CHANNELS 3 Zrotation Xrotation Yrotation
      JOINT LeftFoot
      {
        OFFSET -0.253549 -42.0924 -1.46059
        CHANNELS 3 Zrotation Xrotation Yrotation
        JOINT LeftToes
        {
          OFFSET -0.04 -4.41509 8.4991
          CHANNELS 3 Zrotation Xrotation Yrotation
          End Site
          {
            OFFSET 0.08 -0.047448 9.77979
          }
        }
      }
    }
  }
}
MOTION
Frames:	9
Frame Time:	0.0166667
-8.64496 84.8466 3.84521 -0.506425 4.78236 90.925 -29.6098 -12.007 -3.10398 17.8309 51.208 -34.791 -5.76996 -8.71512 -0.232508 -28.9227 -35.8266 -21.5749 -0.0921794 9.18751 5.09303 -1.19147 18.308 10.4799 -7.45362 -11.8559 20.1512 -5.03302e-021 -3.88251e-019 1.21329e-020 -26.8995 -60.9329 18.415 -4.88963 36.1636 -119.064 18.6811 3.95805 -32.2446 7.47949 2.44915 19.1325 71.5971 -26.7356 51.1031 -14.649 47.6716 134.111 -25.6004 15.4064 -29.4905 14.3191 -31.4611 5.04888 10.0729 10.0565 -29.3065 -23.0734 14.2064 4.33465 5.67977 -7.49642 0.104381 
-9.12611 86.8881 4.92845 -1.37548 4.08299 91.6388 -28.0498 -10.9117 -2.74864 18.5735 47.0052 -34.0735 -3.97361 -10.7163 -0.299478 -24.4287 -32.3038 -18.1284 0.39863 8.14556 5.16225 -0.736673 16.497 10.2709 -7.40718 -10.7278 20.1268 -5.03302e-021 -3.88251e-019 1.21329e-020 -31.3109 -53.4451 13.8896 -15.8046 36.9746 -112.796 9.74684 6.05331 -42.1507 8.00521 2.57569 19.373 70.3828 -26.1315 48.7442 -13.7103 47.2633 133.694 -25.5529 15.2476 -28.8268 14.407 -28.9306 5.12028 9.14816 5.12752 -28.4307 -22.5532 11.6345 3.73949 1.43563 -1.68917 3.14254 
-9.58549 88.8366 5.95618 -2.19829 3.4165 92.2599 -26.3802 -9.86086 -2.3663 18.3672 42.9678 -32.443 -2.01079 -12.5912 -0.29248 -20.2699 -28.5259 -14.9952 0.63868 7.22798 5.25186 -0.352219 14.7753 10.1826 -7.36735 -9.59774 19.9613 -5.03302e-021 -3.88251e-019 1.21329e-020 -34.6628 -45.4402 11.3193 -27.0307 37.3108 -107.133 -0.494566 10.4833 -47.7388 8.43682 2.68239 19.5786 69.4417 -25.5114 46.3489 -13.0829 46.6948 133.851 -25.1576 15.1583 -28.8162 14.5558 -27.5179 5.46233 8.22447 3.25796 -27.0612 -21.9959 8.43821 3.04718 -1.58709 2.07855 5.18262 
-10.1106 90.7229 6.99264 -2.95792 2.82657 92.8266 -24.5338 -8.91588 -2.01397 17.125 39.1827 -29.6996 -0.271292 -13.7456 -0.226985 -17.0975 -25.2659 -12.6371 0.542586 6.49234 5.30273 -0.0591243 13.2795 10.2319 -7.38954 -8.49117 19.692 -5.03302e-021 -3.88251e-019 1.21329e-020 -37.2325 -38.6047 10.2914 -33.0898 36.9886 -105.1 -7.37184 13.8781 -48.957 8.80018 2.77213 19.7404 68.7623 -24.8287 44.0505 -13.074 45.6967 134.835 -24.2257 15.1853 -29.9133 14.6169 -27.0028 5.92928 7.40692 3.96592 -25.2452 -21.4052 5.37721 2.40755 -3.18157 3.96668 5.96279 
-10.6909 92.4877 8.0102 -3.5071 2.33621 93.3032 -22.5676 -7.98141 -1.67202 14.9805 35.7971 -25.6871 0.925136 -13.812 -0.162243 -15.3167 -23.3143 -11.1535 0.236074 5.957 5.33957 0.144392 12.0928 10.4122 -7.49708 -7.41706 19.3527 -5.03302e-021 -3.88251e-019 1.21329e-020 -39.2853 -34.0136 10.2016 -32.7788 36.4656 -106.95 -8.62362 14.5086 -49.1322 9.15368 2.85262 19.8361 68.2658 -23.9948 41.9424 -13.8285 43.9799 136.677 -22.639 15.297 -32.3105 14.5726 -27.1753 6.27666 6.70991 7.11329 -22.9779 -20.5059 2.84244 1.86321 -3.42582 4.27062 5.61611 
-11.272 94.0308 8.94775 -3.68381 1.93544 93.6538 -20.5943 -6.9082 -1.2708 12.2606 32.9984 -20.5792 1.53819 -12.8027 -0.135865 -14.9517 -23.0317 -10.2087 -0.0579122 5.60034 5.42333 0.284537 11.2361 10.6933 -7.67802 -6.35359 18.9676 -5.03302e-021 -3.88251e-019 1.21329e-020 -40.9239 -32.0261 10.5695 -27.4782 35.4698 -111.58 -4.59402 12.5322 -49.2434 9.57344 2.93519 19.845 67.8405 -22.9322 40.0723 -15.2235 41.3637 139.1 -20.3952 15.3664 -35.8131 14.5091 -27.7327 6.25633 5.97706 12.3744 -20.1291 -19.1348 1.02307 1.44072 -2.54805 3.25114 4.4716 
-11.8443 95.2669 9.81415 -3.4733 1.55984 93.9431 -18.682 -5.70299 -0.76055 9.41289 31.0259 -15.0763 1.82324 -11.1098 -0.139038 -15.601 -24.1048 -9.29436 -0.167004 5.36741 5.55311 0.398428 10.6902 11.0262 -7.90067 -5.24998 18.5566 -5.03302e-021 -3.88251e-019 1.21329e-020 -42.175 -32.4995 11.116 -18.9543 33.2847 -117.668 3.16073 8.72262 -47.7672 10.1327 3.03294 19.766 67.3893 -21.6543 38.4468 -16.9089 37.94 141.605 -17.6827 15.2434 -39.8575 14.5591 -28.3171 5.76062 4.93816 18.8331 -16.6293 -17.4773 0.123283 1.18004 -0.858115 1.17251 2.89749 
-12.4076 96.1644 10.6507 -2.91453 1.23136 94.2783 -17.0002 -4.38498 -0.114351 6.89562 30.0309 -10.1264 2.14552 -9.26155 -0.152047 -16.6503 -25.8078 -8.16938 -0.147249 5.2477 5.69308 0.499184 10.4084 11.3558 -8.13655 -4.04821 18.1424 -5.03302e-021 -3.88251e-019 1.21329e-020 -43.093 -34.9459 11.7108 -9.74585 29.9664 -123.339 12.1972 4.8922 -43.0258 10.8784 3.15682 19.623 66.8697 -20.315 37.046 -18.4833 34.1528 143.724 -14.9048 14.8817 -43.7019 14.6878 -28.6719 4.85202 3.4189 25.6593 -12.7092 -15.8285 0.0832023 1.06045 1.25044 -1.57335 1.25592 
-12.9618 96.7048 11.4914 -2.092 0.954796 94.7335 -15.69 -3.03458 0.62161 5.09404 30.0702 -6.4778 2.73457 -7.65633 -0.171815 -17.6827 -27.5441 -7.03588 -0.0443527 5.20594 5.81218 0.605923 10.3121 11.6333 -8.37424 -2.71598 17.7509 -5.03302e-021 -3.88251e-019 1.21329e-020 -43.8286 -38.6071 12.2419 -2.41367 26.9655 -127.013 19.7499 2.89262 -35.9783 11.8143 3.31099 19.4507 66.303 -19.168 35.8441 -19.6444 30.6777 145.213 -12.564 14.403 -46.7065 14.8176 -28.8094 3.78219 1.55513 32.5245 -8.97216 -14.4447 0.567199 1.02343 3.3921 -4.50524 -0.162976 
